<?xml version="1.0" standalone="no"?><!DOCTYPE svg PUBLIC "-//W3C//DTD SVG 1.1//EN" "http://www.w3.org/Graphics/SVG/1.1/DTD/svg11.dtd"><svg t="1645459536045" class="icon" viewBox="0 0 1024 1024" version="1.1" xmlns="http://www.w3.org/2000/svg" p-id="5042" xmlns:xlink="http://www.w3.org/1999/xlink" width="128" height="128"><defs><style type="text/css"></style></defs><path d="M661.807934 565.30402l-1.069355-14.042831c-3.260254-29.15297 6.485715-61.007469 33.55114-93.41353 24.348548-28.610618 37.880749-49.666166 37.880749-73.966619 0-27.535123-17.318434-45.898353-51.41295-46.439682-19.47454 0-41.141002 6.479575-54.655807 16.736173l-12.988826-34.014698c17.844413-12.95915 48.696072-21.597901 77.391624-21.597901 62.228273 0 90.38045 38.334073 90.38045 79.378885 0 36.70804-20.561291 63.167668-46.539966 93.946672-23.822568 28.077475-32.481785 51.835575-30.851659 79.370699l0.543376 14.042831L661.807934 565.30402zM649.90586 640.897695c0-19.980054 13.532201-34.014698 32.481785-34.014698 18.931165 0 31.921014 14.034645 31.921014 34.014698 0 18.896372-12.44545 33.472346-32.464389 33.472346C662.894685 674.370041 649.90586 659.793044 649.90586 640.897695z" p-id="5043" fill="#ffffff"></path><path d="M394.163221 350.265432c-1.77032 0-3.576455-0.261966-5.354961-0.813528-0.552585-0.174985-55.462173-17.10354-102.353133-17.10354-46.899146 0-101.809757 16.928554-102.362342 17.10354-9.482979 2.937912-19.535939-2.316765-22.481014-11.751648-2.962471-9.434883 2.305509-19.481703 11.761881-22.437012 2.453888-0.760317 60.607356-18.729573 113.081475-18.729573 52.464909 0 110.618377 17.969257 113.072265 18.729573 9.457396 2.955308 14.724353 13.002129 11.761881 22.437012C408.896784 345.359702 401.806295 350.265432 394.163221 350.265432z" p-id="5044" fill="#ffffff"></path><path d="M394.163221 511.437182c-1.77032 0-3.576455-0.261966-5.354961-0.813528-0.552585-0.174985-55.462173-17.10354-102.353133-17.10354-46.899146 0-101.809757 16.928554-102.362342 17.10354-9.482979 2.90312-19.535939-2.325975-22.481014-11.751648-2.962471-9.434883 2.305509-19.481703 11.761881-22.437012 2.453888-0.760317 60.607356-18.729573 113.081475-18.729573 52.464909 0 110.618377 17.969257 113.072265 18.729573 9.457396 2.955308 14.724353 13.002129 11.761881 22.437012C408.896784 506.531452 401.806295 511.437182 394.163221 511.437182z" p-id="5045" fill="#ffffff"></path><path d="M394.163221 672.608931c-1.77032 0-3.576455-0.261966-5.354961-0.813528-0.552585-0.174985-55.462173-17.10354-102.353133-17.10354-46.899146 0-101.809757 16.928554-102.362342 17.10354-9.482979 2.911306-19.535939-2.316765-22.481014-11.751648-2.962471-9.434883 2.305509-19.481703 11.761881-22.437012 2.453888-0.760317 60.607356-18.729573 113.081475-18.729573 52.464909 0 110.618377 17.969257 113.072265 18.729573 9.457396 2.955308 14.724353 13.002129 11.761881 22.437012C408.896784 667.703201 401.806295 672.608931 394.163221 672.608931z" p-id="5046" fill="#ffffff"></path><path d="M496.454956 859.112626c-18.808368 0-37.652552-3.690042-55.997362-11.070126-51.185776-20.583804-100.066043-30.595832-149.419078-30.595832-109.952204 0-190.56008 33.393551-191.366446 33.726126-8.300037 3.488451-17.485233 2.614547-25.00551-2.360767-7.520277-4.975315-11.700483-13.378705-11.700483-22.384823L62.966077 190.694133c0-10.729365 6.055926-20.435425 15.943111-24.676006 3.611248-1.547239 89.832981-38.028105 212.879412-38.028105 74.419943 0 131.120316 19.437701 167.370939 34.0587 23.112394 9.321296 49.468668 9.636474 72.335469 0.865717 33.927717-13.037944 102.594633-34.924417 181.388187-34.924417 122.152061 0 224.49803 35.868929 228.802056 37.389562 10.736529 3.812839 17.697057 13.94664 17.697057 25.314549l0 635.733069c0 8.700149-4.034896 16.84976-11.134595 21.895683-7.134491 5.036713-16.168238 6.321986-24.362874 3.462868-0.99056-0.340761-100.086509-34.338063-210.494085-34.338063-73.359798 0-139.262764 22.219047-164.197666 31.767518C531.953448 855.816556 514.229784 859.112626 496.454956 859.112626zM291.062052 763.723092c55.602366 0 112.64043 11.603269 169.548534 34.495652 22.832008 9.181103 46.77942 9.478885 69.313645 0.839111 27.739784-10.623965 101.270475-35.334763 183.640484-35.334763 79.065753 0 151.674445 15.581883 192.606693 26.634614L906.171408 210.393801c-33.769105-9.723455-109.109-28.681226-193.187931-28.681226-70.082148 0-131.669832 19.630083-162.109098 31.338752-35.479049 13.605879-76.299757 13.168927-111.963001-1.198292-32.069393-12.941753-82.22163-30.141484-147.254785-30.141484-82.335217 0-145.80169 17.986653-175.47757 27.65792l0 579.491137C151.993716 777.835508 215.897142 763.723092 291.062052 763.723092z" p-id="5047" fill="#ffffff"></path><path d="M511.174192 746.339166c-9.912767 0-18.419512-8.018627-18.419512-17.907858L492.75468 298.639634c0-9.889231 8.506744-17.907858 18.419512-17.907858s18.419512 8.018627 18.419512 17.907858l0 429.791673C529.593703 738.321562 521.086959 746.339166 511.174192 746.339166z" p-id="5048" fill="#ffffff"></path></svg>