<?xml version="1.0" standalone="no"?><!DOCTYPE svg PUBLIC "-//W3C//DTD SVG 1.1//EN" "http://www.w3.org/Graphics/SVG/1.1/DTD/svg11.dtd"><svg t="1645459858368" class="icon" viewBox="0 0 1024 1024" version="1.1" xmlns="http://www.w3.org/2000/svg" p-id="5339" data-spm-anchor-id="a313x.7781069.0.i9" xmlns:xlink="http://www.w3.org/1999/xlink" width="128" height="128"><defs><style type="text/css"></style></defs><path d="M487.9104 678.03648c9.07264 8.83712 22.67648 17.65888 36.29568 17.65888s27.21792-4.40832 36.29568-17.65888l158.83264-167.72608a135.44448 135.44448 0 0 0 45.36832-128c-9.088-61.79328-63.53408-110.35136-127.06816-119.168-40.82176-4.41344-86.21056 4.41856-117.98016 30.8992-31.744-26.48064-77.1328-35.31264-117.97504-30.8992C342.69184 271.95904 288.25088 320.52224 279.17312 382.3104c-9.088 48.55808 9.07264 92.68736 45.36832 123.58144l163.36896 172.14464zM428.9024 302.85312c27.2384 0 54.46144 8.832 72.60672 26.50112 13.6192 13.23008 31.7696 13.23008 45.3888 0 22.67136-22.08256 58.98752-30.8992 90.73664-26.50112 45.3888 4.41344 81.68448 39.7312 90.75712 83.87072 4.55168 35.31264-9.06752 66.20672-36.29568 88.27392l-163.33824 172.13952h-9.09824L356.31104 474.99776c-27.22304-17.64864-40.82176-52.96128-31.7696-83.87584 9.09312-44.12416 45.3888-79.41632 90.74176-83.85536 4.56192-4.41344 9.088-4.41344 13.63968-4.41344h-0.02048z" p-id="5340" fill="#ffffff"></path><path d="M430.16192 513.57696c4.64384 4.32128 9.24672 8.66304 18.4832 8.66304 4.59776 0 9.22112 0 13.83936-4.34176 9.2416-8.66816 9.2416-21.67296 0-30.3616l-32.32256-39.01952c-18.46272-12.98944-23.08096-34.69824-18.46272-56.37632 0-4.34176 0-12.98944-4.61824-17.34656-4.62336-4.3264-9.24672-8.66304-13.85984-8.66304-4.60288 0-13.84448 0-18.46272 4.34176-4.61824 4.3264-9.2416 8.66304-9.2416 12.98944-4.61824 34.69824 4.63872 69.39648 32.32256 95.4112l32.32256 34.70336z" p-id="5341" fill="#ffffff"></path><path d="M954.76736 123.29472H71.59296c-13.39904 0-22.30272 8.72448-22.30272 21.80096 0 13.0816 8.9088 21.80096 22.30272 21.80096h84.74624v462.16704c0 4.35712 4.44928 13.08672 8.92416 17.43872l330.07104 270.32576c4.4544 4.36224 8.92928 4.36224 13.39904 4.36224 4.4544 0 8.90368 0 13.35808-4.36224l339.01568-274.67776c4.44928-4.36224 8.90368-8.7296 8.90368-17.44384V162.53952h84.7616c13.40416 0 22.30272-8.72448 22.30272-21.80608 0-13.0816-13.37344-17.43872-22.30784-17.43872z m-129.34656 39.2448v449.08032l-316.69248 261.60128-307.78368-257.23392V162.53952h624.47616z" p-id="5342" fill="#ffffff"></path></svg>